<svg width="37" height="37" viewBox="0 0 37 37" fill="none" xmlns="http://www.w3.org/2000/svg">
<path opacity="0.1" fill-rule="evenodd" clip-rule="evenodd" d="M0 18.453C0 8.26168 8.11484 0 18.125 0C28.1352 0 36.25 8.26168 36.25 18.453C36.25 28.6443 28.1352 36.9059 18.125 36.9059C8.11484 36.9059 0 28.6443 0 18.453Z" fill="white"/>
<path fill-rule="evenodd" clip-rule="evenodd" d="M18.1259 8.61139C15.5006 8.61139 15.1711 8.62308 14.14 8.67085C13.1108 8.71883 12.4084 8.8847 11.7938 9.12808C11.158 9.37945 10.6186 9.71571 10.0813 10.2629C9.54361 10.81 9.21333 11.3591 8.96562 12.0062C8.72596 12.6321 8.56283 13.3475 8.51651 14.3948C8.4704 15.4446 8.45831 15.7802 8.45831 18.4531C8.45831 21.1259 8.46999 21.4603 8.51672 22.5101C8.56404 23.5578 8.72697 24.273 8.96582 24.8988C9.21293 25.5461 9.54321 26.0951 10.0807 26.6422C10.6178 27.1896 11.1572 27.5267 11.7925 27.7781C12.4076 28.0215 13.1102 28.1873 14.1392 28.2353C15.1703 28.2831 15.4995 28.2948 18.1247 28.2948C20.7502 28.2948 21.0787 28.2831 22.1098 28.2353C23.1389 28.1873 23.8422 28.0215 24.4572 27.7781C25.0928 27.5267 25.6313 27.1896 26.1684 26.6422C26.7062 26.0951 27.0364 25.5461 27.2841 24.899C27.5218 24.273 27.6849 23.5576 27.7332 22.5103C27.7796 21.4605 27.7916 21.1259 27.7916 18.4531C27.7916 15.7802 27.7796 15.4448 27.7332 14.395C27.6849 13.3473 27.5218 12.6321 27.2841 12.0064C27.0364 11.3591 26.7062 10.81 26.1684 10.2629C25.6307 9.7155 25.093 9.37925 24.4566 9.12808C23.8404 8.8847 23.1375 8.71883 22.1084 8.67085C21.0773 8.62308 20.749 8.61139 18.1229 8.61139H18.1259ZM17.2587 10.3849C17.516 10.3845 17.8032 10.3849 18.1258 10.3849C20.7069 10.3849 21.0128 10.3943 22.032 10.4415C22.9745 10.4854 23.4861 10.6457 23.8268 10.7804C24.2779 10.9588 24.5996 11.172 24.9377 11.5165C25.276 11.861 25.4855 12.189 25.6611 12.6483C25.7934 12.9948 25.9511 13.5156 25.994 14.4752C26.0403 15.5126 26.0504 15.8243 26.0504 18.4508C26.0504 21.0773 26.0403 21.3889 25.994 22.4264C25.9509 23.386 25.7934 23.9068 25.6611 24.2533C25.4859 24.7126 25.276 25.0396 24.9377 25.3839C24.5994 25.7283 24.2781 25.9415 23.8268 26.1199C23.4865 26.2553 22.9745 26.4152 22.032 26.4591C21.013 26.5062 20.7069 26.5165 18.1258 26.5165C15.5446 26.5165 15.2387 26.5062 14.2197 26.4591C13.2772 26.4148 12.7656 26.2544 12.4247 26.1197C11.9736 25.9413 11.6513 25.7281 11.313 25.3836C10.9747 25.0392 10.7652 24.712 10.5896 24.2525C10.4573 23.906 10.2996 23.3852 10.2567 22.4256C10.2104 21.3881 10.2011 21.0765 10.2011 18.4483C10.2011 15.8202 10.2104 15.5102 10.2567 14.4727C10.2998 13.5131 10.4573 12.9923 10.5896 12.6454C10.7648 12.1861 10.9747 11.8581 11.313 11.5136C11.6513 11.1692 11.9736 10.9559 12.4247 10.7771C12.7654 10.6418 13.2772 10.4819 14.2197 10.4378C15.1114 10.3968 15.457 10.3845 17.2587 10.3825V10.3849ZM23.2859 12.019C22.6455 12.019 22.1259 12.5474 22.1259 13.1996C22.1259 13.8517 22.6455 14.3806 23.2859 14.3806C23.9263 14.3806 24.4459 13.8517 24.4459 13.1996C24.4459 12.5476 23.9263 12.019 23.2859 12.019ZM18.1259 13.3989C15.3844 13.3989 13.1616 15.6619 13.1616 18.453C13.1616 21.2442 15.3844 23.5061 18.1259 23.5061C20.8674 23.5061 23.0894 21.2442 23.0894 18.453C23.0894 15.6619 20.8674 13.3989 18.1259 13.3989ZM18.1259 15.1725C19.9054 15.1725 21.3481 16.6412 21.3481 18.453C21.3481 20.2647 19.9054 21.7336 18.1259 21.7336C16.3462 21.7336 14.9036 20.2647 14.9036 18.453C14.9036 16.6412 16.3462 15.1725 18.1259 15.1725Z" fill="#2B2626"/>
</svg>
